<svg width="58" height="53" viewBox="0 0 58 53" fill="none" xmlns="http://www.w3.org/2000/svg">
<path d="M5.8 11.7778H52.2V5.88889H5.8V11.7778ZM0 5.88889C0 4.26944 0.567917 2.8831 1.70375 1.72986C2.83958 0.57662 4.205 0 5.8 0H52.2C53.795 0 55.1604 0.57662 56.2962 1.72986C57.4321 2.8831 58 4.26944 58 5.88889V23.5556H5.8V41.2222H17.69V47.1111H5.8C4.205 47.1111 2.83958 46.5345 1.70375 45.3812C0.567917 44.228 0 42.8417 0 41.2222V5.88889ZM37.555 53L25.23 40.4861L29.29 36.3639L37.555 44.6083L53.94 27.9722L58 32.2417L37.555 53ZM5.8 5.88889V41.2222V27.9722V36.2903V5.88889Z" fill="white"/>
</svg>
