<svg width="31" height="21" viewBox="0 0 31 21" fill="none" xmlns="http://www.w3.org/2000/svg">
<path d="M5.29199 20.7077H3.83366L2.88574 17.791H0.916992V10.4629C0.916992 9.66081 1.20258 8.98025 1.77376 8.42122C2.34494 7.8622 3.03158 7.58268 3.83366 7.58268V3.20768C3.83366 2.4056 4.11925 1.71897 4.69043 1.14779C5.26161 0.576606 5.94824 0.291016 6.75033 0.291016H24.2503C25.0524 0.291016 25.739 0.576606 26.3102 1.14779C26.8814 1.71897 27.167 2.4056 27.167 3.20768V7.58268C27.9691 7.58268 28.6557 7.86827 29.2269 8.43945C29.7981 9.01063 30.0837 9.69727 30.0837 10.4993V17.791H28.1149L27.167 20.7077H25.7087L24.7607 17.791H6.23991L5.29199 20.7077ZM16.9587 7.58268H24.2503V3.20768H16.9587V7.58268ZM6.75033 7.58268H14.042V3.20768H6.75033V7.58268ZM3.83366 14.8743H27.167V10.4993H3.83366V14.8743Z" fill="#E8EAED"/>
</svg>
