<svg width="139" height="39" viewBox="0 0 139 39" fill="none" xmlns="http://www.w3.org/2000/svg">
<path d="M7.35707 33.0889C5.92736 33.0889 4.70945 32.7778 3.70336 32.1556C2.69726 31.5268 1.92614 30.6531 1.39 29.5344C0.860476 28.4158 0.595714 27.1185 0.595714 25.6424C0.595714 24.1664 0.860476 22.8691 1.39 21.7504C1.92614 20.6318 2.69726 19.7614 3.70336 19.1392C4.70945 18.5104 5.92736 18.196 7.35707 18.196C9.00522 18.196 10.3687 18.613 11.4476 19.447C12.5332 20.281 13.2877 21.4029 13.7114 22.8128L11.6065 23.3787C11.3285 22.3793 10.8321 21.5949 10.1172 21.0257C9.40898 20.4564 8.48893 20.1718 7.35707 20.1718C6.34436 20.1718 5.50043 20.4002 4.82529 20.8569C4.15014 21.3136 3.64048 21.9523 3.29629 22.7731C2.95871 23.5938 2.78993 24.5503 2.78993 25.6424C2.78331 26.7346 2.94879 27.691 3.28636 28.5118C3.63055 29.3326 4.14021 29.9713 4.81536 30.428C5.49712 30.8847 6.34436 31.1131 7.35707 31.1131C8.48893 31.1131 9.40898 30.8285 10.1172 30.2592C10.8321 29.6834 11.3285 28.899 11.6065 27.9062L13.7114 28.4721C13.2877 29.8819 12.5332 31.0039 11.4476 31.8379C10.3687 32.6719 9.00522 33.0889 7.35707 33.0889ZM34.1752 32.791V18.4939H36.2801L43.3194 29.1174V18.4939H45.4243V32.791H43.3194L36.2801 22.1575V32.791H34.1752ZM54.9668 33.0889C53.9408 33.0889 53.0141 32.9135 52.1868 32.5627C51.366 32.2052 50.6875 31.6989 50.1514 31.0436C49.6219 30.3817 49.2777 29.5973 49.1188 28.6905L51.2833 28.3629C51.5017 29.2366 51.9584 29.9183 52.6534 30.4082C53.3484 30.8913 54.1592 31.1329 55.0859 31.1329C55.6618 31.1329 56.1913 31.0436 56.6745 30.8649C57.1577 30.6795 57.5449 30.4181 57.8361 30.0805C58.134 29.7363 58.2829 29.3259 58.2829 28.8494C58.2829 28.5912 58.2366 28.3629 58.1439 28.1643C58.0578 27.9657 57.9354 27.7936 57.7765 27.648C57.6243 27.4958 57.4357 27.3667 57.2106 27.2608C56.9922 27.1483 56.7506 27.0523 56.4858 26.9729L52.8222 25.8907C52.4648 25.7848 52.1007 25.6491 51.73 25.4836C51.3594 25.3115 51.0185 25.0898 50.7074 24.8184C50.4029 24.5404 50.1547 24.1995 49.9627 23.7957C49.7708 23.3853 49.6748 22.8889 49.6748 22.3064C49.6748 21.4261 49.8999 20.6815 50.35 20.0725C50.8067 19.4569 51.4223 18.9936 52.1967 18.6825C52.9711 18.3648 53.8382 18.2059 54.798 18.2059C55.7643 18.2192 56.6281 18.3913 57.3893 18.7222C58.1571 19.0532 58.7926 19.5298 59.2956 20.1519C59.8053 20.7675 60.1561 21.5155 60.348 22.3958L58.124 22.7731C58.0248 22.2369 57.8129 21.7769 57.4886 21.393C57.1643 21.0025 56.7671 20.7046 56.2972 20.4994C55.8272 20.2876 55.3176 20.1784 54.7682 20.1718C54.2387 20.1586 53.7522 20.238 53.3087 20.4101C52.8718 20.5822 52.521 20.8238 52.2563 21.1349C51.9981 21.446 51.869 21.8034 51.869 22.2072C51.869 22.6043 51.9849 22.9253 52.2165 23.1702C52.4482 23.4151 52.7328 23.6104 53.0704 23.756C53.4146 23.895 53.7555 24.0108 54.093 24.1035L56.734 24.8482C57.065 24.9408 57.439 25.0666 57.856 25.2254C58.2796 25.3777 58.6867 25.5928 59.0772 25.8708C59.4743 26.1488 59.802 26.5195 60.0601 26.9828C60.3183 27.4395 60.4473 28.0154 60.4473 28.7104C60.4473 29.4318 60.3017 30.0673 60.0105 30.6167C59.7192 31.1594 59.3188 31.6161 58.8091 31.9868C58.3061 32.3508 57.7236 32.6255 57.0617 32.8109C56.3998 32.9962 55.7015 33.0889 54.9668 33.0889ZM69.8508 33.0889C68.7321 33.0889 67.7426 32.8605 66.8821 32.4038C66.0283 31.9405 65.3597 31.2951 64.8766 30.4677C64.3934 29.6337 64.1518 28.6541 64.1518 27.5289V18.5038L66.2566 18.4939V27.4197C66.2566 28.0286 66.3592 28.5648 66.5644 29.0281C66.7696 29.4914 67.0443 29.8786 67.3885 30.1897C67.7327 30.5008 68.1166 30.7358 68.5402 30.8947C68.9704 31.0535 69.4073 31.1329 69.8508 31.1329C70.3009 31.1329 70.7377 31.0535 71.1613 30.8947C71.5916 30.7292 71.9788 30.4909 72.323 30.1798C72.6672 29.8687 72.9386 29.4815 73.1371 29.0182C73.3423 28.5548 73.4449 28.022 73.4449 27.4197V18.4939H75.5498V27.5289C75.5498 28.6475 75.3082 29.6238 74.825 30.4578C74.3418 31.2918 73.67 31.9405 72.8095 32.4038C71.9556 32.8605 70.9694 33.0889 69.8508 33.0889ZM80.1143 32.791V18.4939H82.1893V30.8351H88.6628V32.791H80.1143ZM93.5234 32.791V20.4498H88.7676V18.4939H100.354V20.4498H95.5985V32.791H93.5234ZM103.73 32.791V18.4939H105.805V32.791H103.73ZM110.375 32.791V18.4939H112.48L119.52 29.1174V18.4939H121.625V32.791H119.52L112.48 22.1575V32.791H110.375ZM131.832 33.0889C130.872 33.0889 129.989 32.9234 129.181 32.5924C128.374 32.2549 127.672 31.7651 127.076 31.123C126.481 30.481 126.017 29.6999 125.686 28.7799C125.355 27.8598 125.19 26.814 125.19 25.6424C125.19 24.1002 125.471 22.7764 126.034 21.671C126.597 20.559 127.378 19.7052 128.377 19.1094C129.377 18.5071 130.528 18.2059 131.832 18.2059C133.513 18.2059 134.854 18.5965 135.853 19.3775C136.859 20.1586 137.544 21.2375 137.908 22.6142L135.804 22.9915C135.512 22.1377 135.042 21.4559 134.394 20.9462C133.745 20.4366 132.931 20.1784 131.951 20.1718C130.939 20.1652 130.095 20.3902 129.42 20.8469C128.751 21.3037 128.248 21.9457 127.91 22.7731C127.573 23.5938 127.401 24.5503 127.394 25.6424C127.388 26.7346 127.553 27.691 127.891 28.5118C128.228 29.3259 128.734 29.9614 129.41 30.4181C130.091 30.8748 130.939 31.1065 131.951 31.1131C132.765 31.1263 133.464 30.9774 134.046 30.6663C134.635 30.3486 135.102 29.8853 135.446 29.2763C135.79 28.6673 136.012 27.9194 136.111 27.0324H133.331V25.3644H138.316C138.329 25.4836 138.339 25.6424 138.345 25.841C138.352 26.033 138.355 26.1554 138.355 26.2084C138.355 27.5322 138.1 28.7137 137.591 29.7529C137.081 30.7921 136.34 31.6095 135.367 32.2052C134.394 32.7943 133.216 33.0889 131.832 33.0889Z" fill="#ACACAC"/>
<path d="M24.2386 31.976L22.9521 32.4189L23.1938 20.9886L23.3483 19.0532L31.3242 26.9296L30.9034 28.1919L24.2386 21.4599L24.3245 22.3901L24.2386 31.976ZM23.4126 27.6197L28.7319 24.6744L29.3716 25.6001L23.7493 28.7136L23.4126 27.6197Z" fill="#ABABAB"/>
<path d="M17.4032 22.1831L23.4631 30.957L23.3958 21.4565L24.0523 21.4565L24.296 32.2996L23.3958 32.7582L16.5952 23.0079L17.4032 22.1831Z" fill="#ABABAB"/>
<path d="M23.4156 11.9419C23.4156 11.9419 21.423 11.4996 19.6347 13.1213V12.6299C19.6347 12.6299 19.5325 13.367 19.1748 13.711C19.277 13.4162 19.2259 12.9739 19.2259 12.9739C19.0017 13.2756 18.8771 13.6352 18.8683 14.0059C18.6639 13.6128 18.8683 13.023 18.8683 13.023C18.8683 13.023 18.6639 13.1705 18.5106 14.2025C18.153 14.4482 17.8975 14.8905 17.8975 14.8905V14.7431C17.8232 14.8542 17.755 14.9691 17.6931 15.0871C17.6944 14.9058 17.7115 14.725 17.7442 14.5465C17.642 14.9888 17.3355 15.3819 17.3355 15.3819C17.3672 15.1868 17.3843 14.9897 17.3865 14.7922C17.2649 15.0193 17.2118 15.2747 17.2333 15.5294C17.2333 15.5294 16.6712 15.9225 16.1092 17.1511C16.0581 15.7259 17.3865 13.711 17.3865 13.711L17.1311 13.9568C17.1311 13.9568 18.3573 11.1556 22.1383 11.1556C21.8317 10.6641 19.3281 10.8607 19.3281 10.8607C19.3281 10.8607 19.3281 10.7133 19.4814 10.5167C19.2259 10.6641 19.1237 10.959 19.1237 10.959C18.9321 10.9619 18.7422 10.9951 18.5617 11.0573C18.6002 10.9285 18.6703 10.8105 18.7661 10.7133C18.6364 10.781 18.5299 10.8834 18.4595 11.0081H18.2551C18.2551 11.0081 18.4084 10.6641 18.5106 10.615C18.2041 10.9099 18.204 10.959 18.153 11.1556C17.8464 11.1556 17.5398 11.303 17.5398 11.303C17.5398 11.303 17.9486 10.4676 18.3573 10.1727C17.8464 10.4184 17.4376 11.0573 17.4376 11.0573C17.4376 11.0573 16.9267 11.303 16.8756 11.4504C16.8245 11.2539 17.2844 10.4676 17.2844 10.4676C17.2844 10.4676 16.6201 11.0573 16.4158 11.3522C16.2114 11.647 15.7515 11.7944 15.7515 11.7944C15.7211 11.7244 15.7055 11.6492 15.7055 11.5733C15.7055 11.4974 15.7211 11.4222 15.7515 11.3522C15.5472 11.6962 15.3428 12.0893 15.3428 12.0893C15.3541 11.8254 15.4427 11.5699 15.5983 11.3522C15.3636 11.5984 15.1737 11.8808 15.0362 12.1876L14.7807 12.3842C14.814 12.2629 14.8657 12.147 14.934 12.0402C14.6786 12.2859 14.6275 12.4825 14.6275 12.4825L14.0654 12.9739C14.0654 12.9739 14.4231 9.4847 19.2259 9.43555C22.0361 9.43555 23.0069 10.6641 23.4667 11.2047C22.5981 9.18984 19.5325 8.10868 18.8172 7.86296C19.1438 7.74227 19.4893 7.6758 19.8391 7.66639H18.0508C18.1019 7.42067 18.6639 7.32238 18.6639 7.32238C18.6639 7.32238 17.3865 7.42067 16.9778 7.2241C17.1311 7.02752 17.7953 6.88009 17.7953 6.88009C17.7953 6.88009 17.2844 6.7818 16.4669 7.12581C16.1784 7.09462 15.8885 7.07821 15.5983 7.07667C15.5983 7.07667 15.9048 6.73266 16.7734 6.58523C15.4961 6.68352 14.7807 7.2241 14.372 7.07667C13.9632 6.92923 15.7004 6.0938 17.2844 6.14294C18.8683 6.19208 21.1164 6.83095 23.1091 9.68127C22.6492 7.32238 21.1164 6.0938 20.912 5.99551C20.9755 5.98315 21.0411 5.98562 21.1033 6.00272C21.1656 6.01983 21.2226 6.05106 21.2697 6.0938C21.2697 6.0938 20.8098 5.70065 20.35 5.6515C20.5895 5.64744 20.8289 5.66389 21.0653 5.70065C21.0653 5.70065 20.2989 5.50407 20.2989 5.35664C20.7588 5.35664 20.7588 5.3075 20.7588 5.3075C20.7588 5.3075 19.788 5.11093 19.6858 4.86521C19.9252 4.83473 20.1686 4.85145 20.4011 4.91435C20.4011 4.91435 19.1237 4.61949 19.0726 4.47206C19.299 4.38312 19.5448 4.34936 19.788 4.37377C19.788 4.37377 18.3062 4.22634 18.2551 4.02977C18.6639 3.93148 19.4814 3.93148 19.4814 3.93148C19.4814 3.93148 17.7442 3.98062 17.3355 3.83319C17.642 3.44005 18.6639 3.3909 18.9705 3.3909C19.277 3.3909 21.8828 3.68576 23.4156 7.71553C23.4156 6.88009 23.0069 6.04465 22.9047 5.25836C22.8025 4.47206 22.9047 4.22634 22.9047 4.22634C22.9047 4.22634 23.0069 4.71778 23.1602 4.81606C23.058 4.32463 22.8536 4.07891 22.9047 3.73491C23.058 3.88234 23.2113 4.27549 23.2113 4.27549C23.2113 4.27549 22.8025 3.44005 22.9558 3.09604C23.1091 3.48919 23.3646 3.98062 23.3646 3.98062C23.3646 3.98062 23.0069 3.0469 23.1602 2.60461C23.2624 2.89947 23.4667 3.44005 23.4667 3.44005C23.4667 3.44005 22.9558 2.45718 23.5178 1.62174C23.8244 1.17944 23.8755 0 23.8755 0C23.8755 0 24.2842 1.1303 24.3353 1.96574C24.3353 2.11317 24.2842 2.50632 24.2842 2.50632C24.2842 2.50632 24.3864 2.16231 24.3864 1.96574C24.3864 1.76917 24.5397 2.30975 24.4886 2.94861C24.5908 2.40803 24.5908 2.2606 24.5908 2.2606C24.5908 2.2606 24.7952 2.75204 24.7441 3.24347C24.693 3.73491 24.6419 3.98062 24.6419 3.98062C24.6419 3.98062 24.8974 3.44005 24.8463 3.0469C25.0507 3.34176 24.9485 4.12806 24.9485 4.32463C25.1018 4.22634 25.1018 3.88234 25.1018 3.88234C25.1018 3.88234 25.4594 4.5212 25.3572 5.01264C25.255 5.50407 25.4083 5.06178 25.4083 5.06178C25.4083 5.06178 25.3572 5.79893 24.9485 6.33951C24.8463 6.48694 24.6419 7.27324 24.6419 7.27324C24.6419 7.27324 25.5616 5.16007 26.6857 4.42292C27.8097 3.68576 28.9338 3.0469 30.3133 4.1772C29.6491 4.1772 28.7294 4.12806 28.7294 4.12806C28.7294 4.12806 29.1637 4.25091 29.3681 4.25091C29.1637 4.44749 27.5287 4.44749 27.4776 4.64406C27.804 4.64224 28.1296 4.6752 28.4484 4.74235C27.9926 4.94664 27.512 5.09522 27.0178 5.18464C27.6309 5.23378 27.8864 5.18464 27.8864 5.18464C27.8864 5.18464 27.682 5.52865 26.9667 5.57779C27.1003 5.61059 27.2376 5.6271 27.3754 5.62693C27.3754 5.62693 27.2222 5.97094 26.5579 6.02008C26.658 6.04712 26.7608 6.0636 26.8645 6.06922C26.5193 6.37951 26.2108 6.72563 25.9448 7.10124C25.536 7.69096 24.5142 8.96869 24.412 9.46013C24.8207 8.82126 26.8645 6.31494 30.0323 6.16751C31.1053 6.16751 32.4338 6.70809 32.5359 7.05209C32.587 7.15038 31.8206 7.00295 31.0542 6.75723C31.5141 6.95381 31.5652 7.10124 31.5652 7.10124C31.5652 7.10124 31.0542 6.85552 30.5944 6.80638C30.7768 6.88383 30.9484 6.98288 31.1053 7.10124C31.1053 7.10124 30.4922 7.19952 30.1345 7.00295C30.5433 7.24867 30.4922 7.3961 30.4922 7.3961C30.4922 7.3961 29.828 7.3961 29.4192 7.19952C29.2659 7.10124 28.8572 7.15038 28.8572 7.15038C28.8572 7.15038 29.317 7.3961 29.5725 7.44524C29.317 7.59267 28.244 7.3961 28.244 7.3961C28.244 7.3961 28.6528 7.64182 28.9594 7.64182C28.8572 7.69096 27.9886 7.64182 27.9886 7.64182C27.9886 7.64182 28.1929 7.83839 28.2951 7.83839C27.5287 7.83839 25.1273 9.11612 24.3098 10.9836C26.5068 8.91955 29.6747 9.36184 29.6747 9.36184C29.6747 9.36184 33.6089 9.90242 35.0395 13.4899C33.9155 12.3596 32.9958 11.819 32.9958 11.819C32.9958 11.819 32.8936 11.5733 32.587 11.3276C32.6892 11.475 32.8936 11.8682 32.8936 11.8682C32.8936 11.8682 32.4338 11.5242 32.3316 11.3767C32.4848 11.6224 32.4848 11.7207 32.4848 11.7207C32.4848 11.7207 31.8206 11.5242 31.5652 11.131C31.3976 10.8848 31.1695 10.6822 30.9009 10.5413C30.9009 10.5413 31.5141 11.1801 31.5652 11.3767C31.4119 11.1801 30.9009 10.7379 30.9009 10.7379C30.9009 10.7379 31.3608 11.2293 31.3608 11.3276C31.1053 11.2784 30.4411 10.443 30.0834 10.2464C30.0834 10.3939 30.8498 11.2784 30.8498 11.2784C30.8498 11.2784 30.2878 11.2293 29.879 10.8361C29.9301 10.9344 30.1345 11.131 30.1345 11.131L29.0615 10.2956L29.879 11.131C29.879 11.131 29.1637 10.8853 28.6528 10.443C29.317 10.9344 29.7258 11.2784 29.7258 11.2784C29.7258 11.2784 28.7039 10.9344 28.244 10.8853C27.9375 10.4921 27.7331 10.3447 27.7331 10.3447C27.7331 10.3447 27.9375 10.6396 27.9886 10.787C27.1711 10.6396 25.8426 10.787 25.4339 11.0819C27.3243 11.0327 28.9083 11.4259 30.0323 12.4579C31.1564 13.4899 32.9958 15.6522 33.098 17.6179C32.6892 16.8808 31.9228 16.0945 31.9228 16.0945C31.9228 16.0945 31.2586 15.1608 31.1564 14.8659L31.2586 15.3573C31.2586 15.3573 30.5433 14.5219 30.4411 14.0305C30.5433 14.5219 30.6966 14.7676 30.6966 14.7676C30.6966 14.7676 30.3389 14.7185 30.1856 14.1288C30.0323 13.539 29.828 13.2442 29.828 13.2442C29.828 13.2442 30.0834 14.1288 30.0323 14.3253C29.9301 13.883 29.317 12.6545 29.317 12.6545C29.317 12.6545 29.7258 13.7356 29.7258 13.9322C29.4703 13.8339 29.2148 13.1459 29.2148 13.1459C29.2148 13.1459 29.2659 13.539 29.317 13.6373C29.1637 13.4899 28.8061 12.6545 28.6017 12.5562C29.0104 13.2933 29.0104 13.4408 29.0104 13.4408C29.0104 13.4408 27.6309 12.3596 26.5068 12.1139C25.3828 11.8682 24.3098 11.7699 24.2587 12.0647C24.2076 12.3596 24.6145 31.6473 24.6145 31.6473L22.8564 31.5439L23.4156 11.9419Z" fill="url(#paint0_linear_264_89)"/>
<path d="M31.0523 25.2794C31.0523 29.2358 27.8371 32.4463 23.8671 32.4463C19.897 32.4463 16.6819 29.2358 16.6819 25.2794C16.6819 21.3231 19.897 18.1125 23.8671 18.1125C27.8371 18.1125 31.0523 21.3231 31.0523 25.2794Z" stroke="#ACACAC" stroke-width="1.65476"/>
<defs>
<linearGradient id="paint0_linear_264_89" x1="23.8671" y1="1.59756" x2="23.6796" y2="30.207" gradientUnits="userSpaceOnUse">
<stop stop-color="#888888"/>
<stop offset="0.936" stop-color="#AFAFAF"/>
</linearGradient>
</defs>
</svg>
