<svg width="40" height="59" viewBox="0 0 40 59" fill="none" xmlns="http://www.w3.org/2000/svg">
<path d="M17.8319 23.2768C17.8319 23.2768 14.0317 22.4147 10.6212 25.5758V24.6179C10.6212 24.6179 10.4263 26.0547 9.74421 26.7253C9.9391 26.1505 9.84166 25.2884 9.84166 25.2884C9.41406 25.8764 9.17638 26.5774 9.15956 27.3C8.76979 26.5337 9.15956 25.3842 9.15956 25.3842C9.15956 25.3842 8.76979 25.6716 8.47747 27.6832C7.79537 28.1621 7.30816 29.0242 7.30816 29.0242V28.7368C7.16651 28.9536 7.03641 29.1774 6.91839 29.4074C6.92092 29.0541 6.95352 28.7016 7.01583 28.3537C6.82095 29.2158 6.2363 29.9821 6.2363 29.9821C6.29682 29.6017 6.32938 29.2176 6.33374 28.8326C6.10173 29.2754 6.00047 29.7731 6.04141 30.2695C6.04141 30.2695 4.96955 31.0358 3.89769 33.4305C3.80024 30.6526 6.33374 26.7253 6.33374 26.7253L5.84653 27.2042C5.84653 27.2042 8.18514 21.7442 15.3959 21.7442C14.8112 20.7863 10.0365 21.1695 10.0365 21.1695C10.0365 21.1695 10.0365 20.8821 10.3289 20.4989C9.84166 20.7863 9.64677 21.3611 9.64677 21.3611C9.28121 21.3667 8.91909 21.4314 8.57491 21.5526C8.64826 21.3016 8.78194 21.0717 8.96468 20.8821C8.71735 21.0141 8.51426 21.2137 8.38002 21.4568H7.99026C7.99026 21.4568 8.28258 20.7863 8.47747 20.6905C7.89281 21.2653 7.89281 21.3611 7.79537 21.7442C7.21072 21.7442 6.62607 22.0316 6.62607 22.0316C6.62607 22.0316 7.4056 20.4032 8.18514 19.8284C7.21072 20.3074 6.43118 21.5526 6.43118 21.5526C6.43118 21.5526 5.45676 22.0316 5.35932 22.319C5.26188 21.9358 6.13885 20.4032 6.13885 20.4032C6.13885 20.4032 4.87211 21.5526 4.48234 22.1274C4.09257 22.7021 3.21559 22.9895 3.21559 22.9895C3.15759 22.8529 3.12773 22.7064 3.12773 22.5584C3.12773 22.4104 3.15759 22.2639 3.21559 22.1274C2.82582 22.7979 2.43605 23.5642 2.43605 23.5642C2.45772 23.0497 2.62659 22.5517 2.92326 22.1274C2.47584 22.6074 2.11352 23.1579 1.8514 23.7558L1.36419 24.139C1.42762 23.9025 1.52612 23.6766 1.65652 23.4684C1.16931 23.9474 1.07186 24.3305 1.07186 24.3305L0 25.2884C0 25.2884 0.682096 18.4874 9.84166 18.3916C15.201 18.3916 17.0524 20.7863 17.9294 21.84C16.2728 17.9126 10.4263 15.8053 9.06212 15.3263C9.68498 15.0911 10.344 14.9615 11.011 14.9432H7.60049C7.69793 14.4642 8.76979 14.2726 8.76979 14.2726C8.76979 14.2726 6.33374 14.4642 5.5542 14.0811C5.84653 13.6979 7.11328 13.4105 7.11328 13.4105C7.11328 13.4105 6.13885 13.2189 4.57978 13.8895C4.02973 13.8287 3.47677 13.7967 2.92326 13.7937C2.92326 13.7937 3.50792 13.1232 5.16443 12.8358C2.72838 13.0274 1.36419 14.0811 0.584653 13.7937C-0.194884 13.5063 3.11815 11.8779 6.13885 11.9737C9.15956 12.0695 13.447 13.3147 17.2473 18.8705C16.3703 14.2726 13.447 11.8779 13.0572 11.6863C13.1782 11.6622 13.3033 11.667 13.422 11.7004C13.5407 11.7337 13.6496 11.7946 13.7393 11.8779C13.7393 11.8779 12.8624 11.1116 11.9854 11.0158C12.4421 11.0079 12.8986 11.0399 13.3496 11.1116C13.3496 11.1116 11.8879 10.7284 11.8879 10.4411C12.7649 10.4411 12.7649 10.3453 12.7649 10.3453C12.7649 10.3453 10.9135 9.96211 10.7186 9.48316C11.1753 9.42376 11.6394 9.45635 12.0828 9.57895C12.0828 9.57895 9.64677 9.00421 9.54933 8.71684C9.98106 8.54349 10.4497 8.47768 10.9135 8.52526C10.9135 8.52526 8.0877 8.2379 7.99026 7.85474C8.76979 7.66316 10.3289 7.66316 10.3289 7.66316C10.3289 7.66316 7.01583 7.75895 6.2363 7.47158C6.82095 6.70526 8.76979 6.60947 9.35445 6.60947C9.9391 6.60947 14.9086 7.18421 17.8319 15.0389C17.8319 13.4105 17.0524 11.7821 16.8575 10.2495C16.6626 8.71684 16.8575 8.2379 16.8575 8.2379C16.8575 8.2379 17.0524 9.19579 17.3447 9.38737C17.1498 8.42947 16.76 7.95053 16.8575 7.28C17.1498 7.56737 17.4421 8.33368 17.4421 8.33368C17.4421 8.33368 16.6626 6.70526 16.9549 6.03474C17.2473 6.80105 17.7345 7.75895 17.7345 7.75895C17.7345 7.75895 17.0524 5.93895 17.3447 5.07684C17.5396 5.65158 17.9294 6.70526 17.9294 6.70526C17.9294 6.70526 16.9549 4.78947 18.0268 3.16105C18.6114 2.29895 18.7089 0 18.7089 0C18.7089 0 19.4884 2.20316 19.5859 3.83158C19.5859 4.11895 19.4884 4.88526 19.4884 4.88526C19.4884 4.88526 19.6833 4.21474 19.6833 3.83158C19.6833 3.44842 19.9756 4.50211 19.8782 5.74737C20.0731 4.69369 20.0731 4.40632 20.0731 4.40632C20.0731 4.40632 20.4629 5.36421 20.3654 6.32211C20.268 7.28 20.1705 7.75895 20.1705 7.75895C20.1705 7.75895 20.6577 6.70526 20.5603 5.93895C20.9501 6.51369 20.7552 8.04632 20.7552 8.42947C21.0475 8.2379 21.0475 7.56737 21.0475 7.56737C21.0475 7.56737 21.7296 8.81263 21.5347 9.77053C21.3398 10.7284 21.6322 9.86632 21.6322 9.86632C21.6322 9.86632 21.5347 11.3032 20.7552 12.3568C20.5603 12.6442 20.1705 14.1768 20.1705 14.1768C20.1705 14.1768 21.9245 10.0579 24.0682 8.62105C26.2119 7.18421 28.3557 5.93895 30.9866 8.14211C29.7199 8.14211 27.9659 8.04632 27.9659 8.04632C27.9659 8.04632 28.7942 8.28579 29.1839 8.28579C28.7942 8.66895 25.676 8.66895 25.5786 9.05211C26.201 9.04855 26.8219 9.1128 27.43 9.24369C26.5607 9.64188 25.6441 9.9315 24.7016 10.1058C25.8709 10.2016 26.3581 10.1058 26.3581 10.1058C26.3581 10.1058 25.9683 10.7763 24.6041 10.8721C24.8589 10.936 25.1208 10.9682 25.3837 10.9679C25.3837 10.9679 25.0914 11.6384 23.8246 11.7342C24.0154 11.7869 24.2114 11.819 24.4093 11.83C23.7508 12.4348 23.1626 13.1094 22.6553 13.8416C21.8758 14.9911 19.9269 17.4816 19.732 18.4395C20.5116 17.1942 24.4093 12.3089 30.4507 12.0216C32.497 12.0216 35.0305 13.0753 35.2253 13.7458C35.3228 13.9374 33.8611 13.65 32.3995 13.1711C33.2765 13.5542 33.3739 13.8416 33.3739 13.8416C33.3739 13.8416 32.3995 13.3626 31.5225 13.2668C31.8704 13.4178 32.1977 13.6109 32.497 13.8416C32.497 13.8416 31.3277 14.0332 30.6456 13.65C31.4251 14.1289 31.3277 14.4163 31.3277 14.4163C31.3277 14.4163 30.0609 14.4163 29.2814 14.0332C28.989 13.8416 28.2095 13.9374 28.2095 13.9374C28.2095 13.9374 29.0865 14.4163 29.5737 14.5121C29.0865 14.7995 27.0402 14.4163 27.0402 14.4163C27.0402 14.4163 27.8197 14.8953 28.4044 14.8953C28.2095 14.9911 26.553 14.8953 26.553 14.8953C26.553 14.8953 26.9428 15.2784 27.1376 15.2784C25.676 15.2784 21.0962 17.769 19.5372 21.409C23.7272 17.3858 29.7686 18.2479 29.7686 18.2479C29.7686 18.2479 37.2716 19.3016 40 26.2942C37.8563 24.0911 36.1023 23.0374 36.1023 23.0374C36.1023 23.0374 35.9074 22.5584 35.3228 22.0795C35.5177 22.3668 35.9074 23.1332 35.9074 23.1332C35.9074 23.1332 35.0305 22.4626 34.8356 22.1753C35.1279 22.6542 35.1279 22.8458 35.1279 22.8458C35.1279 22.8458 33.8611 22.4626 33.3739 21.6963C33.0545 21.2164 32.6193 20.8215 32.1072 20.5468C32.1072 20.5468 33.2765 21.7921 33.3739 22.1753C33.0816 21.7921 32.1072 20.93 32.1072 20.93C32.1072 20.93 32.9842 21.8879 32.9842 22.0795C32.497 21.9837 31.2302 20.3553 30.5481 19.9721C30.5481 20.2595 32.0097 21.9837 32.0097 21.9837C32.0097 21.9837 30.9379 21.8879 30.1583 21.1216C30.2558 21.3132 30.6456 21.6963 30.6456 21.6963L28.5993 20.0679L30.1583 21.6963C30.1583 21.6963 28.7942 21.2174 27.8197 20.3553C29.0865 21.3132 29.866 21.9837 29.866 21.9837C29.866 21.9837 27.9172 21.3132 27.0402 21.2174C26.4555 20.4511 26.0658 20.1637 26.0658 20.1637C26.0658 20.1637 26.4555 20.7384 26.553 21.0258C24.9939 20.7384 22.4604 21.0258 21.6809 21.6005C25.2862 21.5047 28.3069 22.2711 30.4507 24.2826C32.5944 26.2942 36.1023 30.509 36.2972 34.3405C35.5177 32.9037 34.056 31.3711 34.056 31.3711C34.056 31.3711 32.7893 29.5511 32.5944 28.9763L32.7893 29.9342C32.7893 29.9342 31.4251 28.3058 31.2302 27.3479C31.4251 28.3058 31.7174 28.7847 31.7174 28.7847C31.7174 28.7847 31.0353 28.689 30.743 27.5395C30.4507 26.39 30.0609 25.8153 30.0609 25.8153C30.0609 25.8153 30.5481 27.5395 30.4507 27.9226C30.2558 27.0605 29.0865 24.6658 29.0865 24.6658C29.0865 24.6658 29.866 26.7732 29.866 27.1563C29.3788 26.9647 28.8916 25.6237 28.8916 25.6237C28.8916 25.6237 28.989 26.39 29.0865 26.5816C28.7942 26.2942 28.1121 24.6658 27.7223 24.4742C28.5018 25.9111 28.5018 26.1984 28.5018 26.1984C28.5018 26.1984 25.8709 24.0911 23.7272 23.6121C21.5834 23.1332 19.5371 22.9416 19.4397 23.5163C19.3423 24.0911 20.0321 58.8785 20.0321 58.8785L19.6148 58.9113L19.1974 58.9283L18.3949 58.8955L17.6014 58.8785L16.8218 58.797L17.8319 23.2768Z" fill="url(#paint0_linear_264_43)"/>
<defs>
<linearGradient id="paint0_linear_264_43" x1="18.6929" y1="3.11393" x2="18.3194" y2="58.8786" gradientUnits="userSpaceOnUse">
<stop stop-color="#FFBD6B"/>
<stop offset="0.936" stop-color="#D2A873"/>
</linearGradient>
</defs>
</svg>
