<svg width="27" height="24" viewBox="0 0 27 24" fill="none" xmlns="http://www.w3.org/2000/svg">
<path d="M4.75 20.7077V22.166C4.75 22.5792 4.61024 22.9256 4.33073 23.2051C4.05122 23.4846 3.70486 23.6244 3.29167 23.6244H1.83333C1.42014 23.6244 1.07378 23.4846 0.794271 23.2051C0.514757 22.9256 0.375 22.5792 0.375 22.166V10.4993L3.4375 1.74935C3.58333 1.31185 3.84462 0.959418 4.22135 0.692057C4.59809 0.424696 5.01736 0.291016 5.47917 0.291016H21.5208C21.9826 0.291016 22.4019 0.424696 22.7786 0.692057C23.1554 0.959418 23.4167 1.31185 23.5625 1.74935L26.625 10.4993V22.166C26.625 22.5792 26.4852 22.9256 26.2057 23.2051C25.9262 23.4846 25.5799 23.6244 25.1667 23.6244H23.7083C23.2951 23.6244 22.9488 23.4846 22.6693 23.2051C22.3898 22.9256 22.25 22.5792 22.25 22.166V20.7077H4.75ZM4.45833 7.58268H22.5417L21.0104 3.20768H5.98958L4.45833 7.58268ZM6.9375 16.3327C7.54514 16.3327 8.06163 16.12 8.48698 15.6947C8.91233 15.2693 9.125 14.7528 9.125 14.1452C9.125 13.5375 8.91233 13.0211 8.48698 12.5957C8.06163 12.1704 7.54514 11.9577 6.9375 11.9577C6.32986 11.9577 5.81337 12.1704 5.38802 12.5957C4.96267 13.0211 4.75 13.5375 4.75 14.1452C4.75 14.7528 4.96267 15.2693 5.38802 15.6947C5.81337 16.12 6.32986 16.3327 6.9375 16.3327ZM20.0625 16.3327C20.6701 16.3327 21.1866 16.12 21.612 15.6947C22.0373 15.2693 22.25 14.7528 22.25 14.1452C22.25 13.5375 22.0373 13.0211 21.612 12.5957C21.1866 12.1704 20.6701 11.9577 20.0625 11.9577C19.4549 11.9577 18.9384 12.1704 18.513 12.5957C18.0877 13.0211 17.875 13.5375 17.875 14.1452C17.875 14.7528 18.0877 15.2693 18.513 15.6947C18.9384 16.12 19.4549 16.3327 20.0625 16.3327ZM3.29167 17.791H23.7083V10.4993H3.29167V17.791Z" fill="#E8EAED"/>
</svg>
