<svg width="31" height="31" viewBox="0 0 31 31" fill="none" xmlns="http://www.w3.org/2000/svg">
<path d="M8.20866 11.1243C7.40658 11.1243 6.71994 10.8388 6.14876 10.2676C5.57758 9.6964 5.29199 9.00977 5.29199 8.20768C5.29199 7.4056 5.57758 6.71897 6.14876 6.14779C6.71994 5.57661 7.40658 5.29102 8.20866 5.29102C9.01074 5.29102 9.69737 5.57661 10.2686 6.14779C10.8397 6.71897 11.1253 7.4056 11.1253 8.20768C11.1253 9.00977 10.8397 9.6964 10.2686 10.2676C9.69737 10.8388 9.01074 11.1243 8.20866 11.1243ZM5.29199 30.0827C4.8788 30.0827 4.53244 29.9429 4.25293 29.6634C3.97342 29.3839 3.83366 29.0375 3.83366 28.6243C3.03158 28.6243 2.34494 28.3388 1.77376 27.7676C1.20258 27.1964 0.916992 26.5098 0.916992 25.7077V16.9577H5.29199V15.8639C5.29199 14.9403 5.60796 14.1625 6.23991 13.5306C6.87185 12.8987 7.64963 12.5827 8.57324 12.5827C9.05935 12.5827 9.50901 12.6799 9.9222 12.8743C10.3354 13.0688 10.7121 13.3362 11.0524 13.6764L13.0941 15.9368C13.2885 16.1313 13.4769 16.3136 13.6592 16.4837C13.8415 16.6539 14.042 16.8118 14.2607 16.9577H24.2503V5.07227C24.2503 4.73199 24.1288 4.44032 23.8857 4.19727C23.6427 3.95421 23.351 3.83268 23.0107 3.83268C22.8649 3.83268 22.7252 3.86306 22.5915 3.92383C22.4578 3.98459 22.3302 4.07574 22.2087 4.19727L20.3857 6.02018C20.5073 6.43338 20.5316 6.84049 20.4587 7.24154C20.3857 7.64258 20.2399 8.01324 20.0212 8.35352L16.0107 4.27018C16.351 4.05143 16.7156 3.91168 17.1045 3.85091C17.4934 3.79015 17.8823 3.83268 18.2712 3.97852L20.0941 2.1556C20.483 1.76671 20.9265 1.46289 21.4248 1.24414C21.9231 1.02539 22.4517 0.916016 23.0107 0.916016C24.1774 0.916016 25.1618 1.31706 25.9639 2.11914C26.7659 2.92122 27.167 3.9056 27.167 5.07227V16.9577H30.0837V25.7077C30.0837 26.5098 29.7981 27.1964 29.2269 27.7676C28.6557 28.3388 27.9691 28.6243 27.167 28.6243C27.167 29.0375 27.0272 29.3839 26.7477 29.6634C26.4682 29.9429 26.1219 30.0827 25.7087 30.0827H5.29199ZM3.83366 25.7077H27.167V19.8743H3.83366V25.7077Z" fill="#E8EAED"/>
</svg>
