<svg width="53" height="58" viewBox="0 0 53 58" fill="none" xmlns="http://www.w3.org/2000/svg">
<path d="M23.4083 47.415L12.9556 37.12L17.225 32.915L23.4083 39.005L35.775 26.825L40.0444 31.03L23.4083 47.415ZM5.88889 58C4.26944 58 2.8831 57.4321 1.72986 56.2962C0.57662 55.1604 0 53.795 0 52.2V11.6C0 10.005 0.57662 8.63958 1.72986 7.50375C2.8831 6.36792 4.26944 5.8 5.88889 5.8H8.83333V0H14.7222V5.8H38.2778V0H44.1667V5.8H47.1111C48.7306 5.8 50.1169 6.36792 51.2701 7.50375C52.4234 8.63958 53 10.005 53 11.6V52.2C53 53.795 52.4234 55.1604 51.2701 56.2962C50.1169 57.4321 48.7306 58 47.1111 58H5.88889ZM5.88889 52.2H47.1111V23.2H5.88889V52.2ZM5.88889 17.4H47.1111V11.6H5.88889V17.4Z" fill="white"/>
</svg>
