<svg width="38" height="38" viewBox="0 0 38 38" fill="none" xmlns="http://www.w3.org/2000/svg">
<path d="M35.5625 37.75C31.2222 37.75 26.934 36.8038 22.6979 34.9115C18.4618 33.0191 14.6076 30.3368 11.1354 26.8646C7.66319 23.3924 4.9809 19.5382 3.08854 15.3021C1.19618 11.066 0.25 6.77778 0.25 2.4375C0.25 1.8125 0.458333 1.29167 0.875 0.875C1.29167 0.458333 1.8125 0.25 2.4375 0.25H10.875C11.3611 0.25 11.7951 0.414931 12.1771 0.744792C12.559 1.07465 12.7847 1.46528 12.8542 1.91667L14.2083 9.20833C14.2778 9.76389 14.2604 10.2326 14.1562 10.6146C14.0521 10.9965 13.8611 11.3264 13.5833 11.6042L8.53125 16.7083C9.22569 17.9931 10.0503 19.2344 11.0052 20.4323C11.9601 21.6302 13.0104 22.7847 14.1562 23.8958C15.2326 24.9722 16.3611 25.9705 17.5417 26.8906C18.7222 27.8108 19.9722 28.6528 21.2917 29.4167L26.1875 24.5208C26.5 24.2083 26.908 23.974 27.4115 23.8177C27.9149 23.6615 28.4097 23.6181 28.8958 23.6875L36.0833 25.1458C36.5694 25.2847 36.9688 25.5365 37.2812 25.901C37.5938 26.2656 37.75 26.6736 37.75 27.125V35.5625C37.75 36.1875 37.5417 36.7083 37.125 37.125C36.7083 37.5417 36.1875 37.75 35.5625 37.75ZM6.55208 12.75L9.98958 9.3125L9.10417 4.41667H4.46875C4.64236 5.84028 4.88542 7.24653 5.19792 8.63542C5.51042 10.0243 5.96181 11.3958 6.55208 12.75ZM25.1979 31.3958C26.5521 31.9861 27.9323 32.4549 29.3385 32.8021C30.7448 33.1493 32.1597 33.375 33.5833 33.4792V28.8958L28.6875 27.9062L25.1979 31.3958Z" fill="#E8EAED"/>
</svg>
