<svg width="22" height="20" viewBox="0 0 22 20" fill="none" xmlns="http://www.w3.org/2000/svg">
<path d="M9.74986 20C9.39569 20 9.09881 19.8802 8.85923 19.6406C8.61965 19.401 8.49986 19.1042 8.49986 18.75V11.25L1.24986 2C0.937356 1.58333 0.890481 1.14583 1.10923 0.6875C1.32798 0.229167 1.70819 0 2.24986 0H19.7499C20.2915 0 20.6717 0.229167 20.8905 0.6875C21.1092 1.14583 21.0624 1.58333 20.7499 2L13.4999 11.25V18.75C13.4999 19.1042 13.3801 19.401 13.1405 19.6406C12.9009 19.8802 12.604 20 12.2499 20H9.74986ZM10.9999 10.375L17.1874 2.5H4.81236L10.9999 10.375Z" fill="#E8EAED"/>
</svg>
